<svg width="40" height="40" viewBox="0 0 40 40" fill="none" xmlns="http://www.w3.org/2000/svg">
<path d="M34.9692 15.6094C34.9067 15.5781 34.7348 15.5781 34.6723 15.5469C34.6098 15.5156 34.3754 15.5156 34.2661 15.5156C33.5942 15.5156 33.1098 15.7812 32.8442 16.25L29.2817 22.125L24.7973 22.2031C24.0629 22.2031 23.4379 22.7969 23.4379 23.5625C23.4379 23.7656 23.4848 23.9531 23.5629 24.125H16.3754C16.4536 23.9531 16.5004 23.7656 16.5004 23.5625C16.5004 22.7969 15.8754 22.2031 15.1411 22.2031H10.6567L7.09419 16.25C6.82856 15.7812 6.32856 15.5156 5.67231 15.5156C5.57856 15.5156 5.34419 15.5156 5.26606 15.5469C5.20356 15.5781 5.03169 15.5781 4.96919 15.6094C0.406688 16.6562 0.391063 26.3906 0.422313 28.25C0.422313 29.9531 1.01606 30.7031 2.25044 31.1719C2.54731 31.3125 2.92231 31.375 3.21919 31.375H11.0629V38.1562C11.0629 39.1562 11.8286 39.9219 12.8286 39.9219C13.8286 39.9219 14.5942 39.1562 14.5942 38.1562V29.6719C14.5942 29.2031 14.3911 28.7031 14.0629 28.4062C13.7036 28.0469 13.2348 27.8437 12.7973 27.8437H7.56294V23.9219L4.84419 19.2969C4.70356 19.0937 4.78169 18.8594 4.93794 18.7656C5.14106 18.625 5.37544 18.7031 5.46919 18.8594L8.62544 24.2188C8.64106 24.25 8.67231 24.2812 8.68794 24.3281V26.7812H31.2504V24.3281C31.2817 24.2969 31.2973 24.2656 31.3129 24.2188L34.4692 18.8594C34.5629 18.6875 34.7973 18.625 35.0004 18.7656C35.1723 18.8594 35.2348 19.0937 35.0942 19.2969L32.3754 23.9219V27.8437H27.1567C26.7192 27.8437 26.2661 28.0469 25.8911 28.4062C25.5629 28.7031 25.3598 29.2031 25.3598 29.6719V38.1562C25.3598 39.1562 26.1254 39.9219 27.1254 39.9219C28.1254 39.9219 28.8911 39.1562 28.8911 38.1562V31.375H36.7348C37.0317 31.375 37.4067 31.3125 37.7036 31.1719C38.9379 30.7031 39.5317 29.9531 39.5317 28.25C39.5629 26.4062 39.5473 16.6562 34.9692 15.6094Z" fill="#18AD8F"/>
<path d="M34.7094 12.6437C34.9225 10.9136 33.6926 9.33843 31.9626 9.12542C30.2325 8.91241 28.6573 10.1422 28.4443 11.8723C28.2313 13.6024 29.4611 15.1776 31.1912 15.3906C32.9212 15.6036 34.4964 14.3738 34.7094 12.6437Z" fill="#18AD8F"/>
<path d="M11.1411 13.7458C11.9637 12.2089 11.3846 10.2961 9.84767 9.47351C8.31074 8.65092 6.39796 9.23 5.57537 10.7669C4.75278 12.3039 5.33187 14.2166 6.8688 15.0392C8.40574 15.8618 10.3185 15.2827 11.1411 13.7458Z" fill="#18AD8F"/>
<path d="M20 11.7813C23.2188 11.7813 25.8437 9.15625 25.8437 5.9375C25.8437 2.71875 23.2188 0.109375 20 0.109375C16.7813 0.109375 14.1562 2.73437 14.1562 5.95312C14.1562 9.17188 16.7813 11.7813 20 11.7813ZM19.4688 3.10937V2.34375H20.4844V3.14062C21.125 3.26562 21.5781 3.5625 21.9219 3.8125L21.2188 4.625C21 4.45312 20.5937 4.21875 20.2187 4.14062C19.7344 4.03125 19.2031 4.15625 19.1719 4.64062C19.1562 4.84375 19.25 5.21875 20.3125 5.51562C20.875 5.67188 22.1875 6.01562 22.1875 7.25C22.1875 8.07812 21.4687 8.73438 20.5 8.84375V9.54688H19.4844V8.79688C18.9531 8.6875 18.4531 8.45312 17.9844 8.07812L18.75 7.3125C18.75 7.3125 19.3125 7.75 19.8438 7.82812C20.4531 7.90625 20.8125 7.65625 20.8594 7.3125C20.9375 6.67188 19.5313 6.4375 19.0313 6.1875C18.4219 5.89062 17.8281 5.5 17.8281 4.67188C17.8125 3.8125 18.4844 3.1875 19.4688 3.10937Z" fill="#18AD8F"/>
</svg>
