<svg width="40" height="40" viewBox="0 0 40 40" fill="none" xmlns="http://www.w3.org/2000/svg">
<path d="M30.0181 20.4087L30.857 18.4306C31.2504 17.5028 32.1928 16.9982 33.117 17.1907L33.3145 17.2428L34.365 17.5784C35.4065 17.9113 36.2042 18.8035 36.4618 19.9239C37.0739 22.5867 36.3394 25.8286 34.2584 29.6496C32.1803 33.4651 29.9027 35.7592 27.4255 36.5319C26.4637 36.8319 25.4304 36.6139 24.6532 35.9614L24.4478 35.7728L23.6499 34.9718C22.9586 34.2777 22.8162 33.1796 23.2798 32.3205L23.3975 32.1268L24.5999 30.3602C25.0731 29.6651 25.8825 29.3362 26.6623 29.5024L26.8739 29.5601L29.0938 30.3003C29.9797 29.6299 30.7183 28.7861 31.3098 27.7689C31.8167 26.897 32.1482 26.0134 32.3045 25.1178L32.3679 24.6691L30.5196 22.9148C29.9108 22.3369 29.6896 21.4369 29.9385 20.627L30.0181 20.4087ZM32.9096 6.66699C34.9807 6.66699 36.6596 8.34592 36.6596 10.417L36.6606 17.0486C36.2397 16.6519 35.7479 16.332 35.204 16.1112L34.8715 15.9908L34.159 15.762L34.1596 10.417C34.1596 9.72664 33.5999 9.16699 32.9096 9.16699H7.08398C6.39363 9.16699 5.83398 9.72664 5.83398 10.417V29.5913C5.83398 30.2817 6.39363 30.8413 7.08398 30.8413L11.6657 30.8403L11.6673 26.2503C11.6673 24.72 12.8458 23.465 14.3448 23.3433L14.584 23.3337H25.4085C26.9388 23.3337 28.1938 24.5122 28.3155 26.0111L28.3252 26.2503L28.324 28.287L27.4004 27.979L27.1244 27.8988C25.7393 27.5553 24.291 28.0636 23.3934 29.1892L23.2214 29.4224L22.019 31.189L21.8558 31.4506C21.5213 32.0372 21.3524 32.6896 21.3435 33.341L7.08398 33.3413C5.01292 33.3413 3.33398 31.6624 3.33398 29.5913V10.417C3.33398 8.34592 5.01292 6.66699 7.08398 6.66699H32.9096ZM20.0007 11.6678C22.7621 11.6678 25.0007 13.9063 25.0007 16.6678C25.0007 19.4292 22.7621 21.6678 20.0007 21.6678C17.2392 21.6678 15.0007 19.4292 15.0007 16.6678C15.0007 13.9063 17.2392 11.6678 20.0007 11.6678Z" fill="#18AD8F"/>
</svg>
